<?xml version="1.0" encoding="UTF-8" standalone="no"?>
<svg
   version="1.1"
   viewBox="0 0 256 256"
   width="256"
   height="256"
   id="svg4"
   sodipodi:docname="info.svg"
   inkscape:version="1.1.2 (0a00cf5339, 2022-02-04)"
   xmlns:inkscape="http://www.inkscape.org/namespaces/inkscape"
   xmlns:sodipodi="http://sodipodi.sourceforge.net/DTD/sodipodi-0.dtd"
   xmlns="http://www.w3.org/2000/svg"
   xmlns:svg="http://www.w3.org/2000/svg">
  <defs
     id="defs8" />
  <sodipodi:namedview
     id="namedview6"
     pagecolor="#505050"
     bordercolor="#eeeeee"
     borderopacity="1"
     inkscape:pageshadow="0"
     inkscape:pageopacity="0"
     inkscape:pagecheckerboard="0"
     showgrid="false"
     inkscape:zoom="1.8359375"
     inkscape:cx="128"
     inkscape:cy="127.72766"
     inkscape:window-width="1366"
     inkscape:window-height="704"
     inkscape:window-x="0"
     inkscape:window-y="0"
     inkscape:window-maximized="1"
     inkscape:current-layer="svg4" />
  <path
     d="m128 22.158a105.84 105.84 0 0 0 -105.84 105.84 105.84 105.84 0 0 0 105.84 105.84 105.84 105.84 0 0 0 105.84 -105.84 105.84 105.84 0 0 0 -105.84 -105.84zm0 32.76c5.16 0.117 9.55 1.875 13.18 5.273 3.34 3.575 5.07 7.94 5.19 13.096-0.12 5.156-1.85 9.404-5.19 12.744-3.63 3.75-8.02 5.625-13.18 5.625s-9.4-1.875-12.74-5.625c-3.75-3.34-5.63-7.588-5.63-12.744s1.88-9.521 5.63-13.096c3.34-3.398 7.58-5.156 12.74-5.273zm-16.35 53.792h32.79v92.37h-32.79v-92.37z"
     fill-rule="evenodd"
     fill="#72a7cf"
     id="path2"
     style="fill:#ffffff" />
</svg>
