<?xml version="1.0" encoding="UTF-8" standalone="no"?>
<!-- Created with Inkscape (http://www.inkscape.org/) -->

<svg
   width="210mm"
   height="210mm"
   viewBox="0 0 210 210"
   version="1.1"
   id="svg1257"
   inkscape:version="1.1.2 (0a00cf5339, 2022-02-04)"
   sodipodi:docname="zuyux.svg"
   inkscape:export-filename="/home/hax/Documents/_nexu/zuyux.png"
   inkscape:export-xdpi="38.400002"
   inkscape:export-ydpi="38.400002"
   xmlns:inkscape="http://www.inkscape.org/namespaces/inkscape"
   xmlns:sodipodi="http://sodipodi.sourceforge.net/DTD/sodipodi-0.dtd"
   xmlns="http://www.w3.org/2000/svg"
   xmlns:svg="http://www.w3.org/2000/svg">
  <sodipodi:namedview
     id="namedview1259"
     pagecolor="#505050"
     bordercolor="#eeeeee"
     borderopacity="1"
     inkscape:pageshadow="0"
     inkscape:pageopacity="0"
     inkscape:pagecheckerboard="0"
     inkscape:document-units="mm"
     showgrid="false"
     units="mm"
     inkscape:zoom="0.7991061"
     inkscape:cx="600.67118"
     inkscape:cy="427.35252"
     inkscape:window-width="1366"
     inkscape:window-height="658"
     inkscape:window-x="0"
     inkscape:window-y="0"
     inkscape:window-maximized="1"
     inkscape:current-layer="path907"
     showguides="true"
     height="210mm" />
  <defs
     id="defs1254">
    <rect
       x="-224.35466"
       y="1199.9915"
       width="1620.4139"
       height="338.11801"
       id="rect3033" />
    <rect
       x="117.03331"
       y="42.700901"
       width="317.74716"
       height="199.99547"
       id="rect3573" />
    <rect
       x="70.185471"
       y="248.26605"
       width="580.97296"
       height="230.85728"
       id="rect3945" />
    <inkscape:path-effect
       effect="fill_between_many"
       method="originald"
       linkedpaths="#g5722,0,1"
       id="path-effect5968"
       is_visible="true"
       lpeversion="0"
       join="true"
       close="true"
       autoreverse="true"
       applied="false" />
  </defs>
  <g
     inkscape:groupmode="layer"
     id="layer2"
     inkscape:label="Layer 2">
    <path
       inkscape:original-d="M 0,0"
       inkscape:path-effect="#path-effect5968"
       d="M 0,0"
       id="path5970" />
  </g>
  <g
     inkscape:label="Layer 1"
     inkscape:groupmode="layer"
     id="layer1">
    <g
       id="g6831"
       transform="translate(7.859144,-1.9360245)">
      <g
         aria-label="zuyux"
         id="text3251"
         style="font-size:98.9589px;fill:#ffffff;stroke:#ffffff;stroke-width:2.47397">
        <g
           id="path899">
          <path
             style="color:#000000;-inkscape-font-specification:'Pixel Operator';stroke:none;-inkscape-stroke:none"
             d="m -4.9101338,110.02849 h 6.1849312 v 6.18493 H 26.014523 v 6.18493 H -4.9101338 Z m 6.1849312,0 v -6.18493 h 6.1849313 v 6.18493 z m 6.1849313,-6.18493 V 97.658628 H 13.64466 v 6.184932 z M 13.64466,97.658628 v -6.184931 h 6.184931 v 6.184931 z M -4.9101338,79.103835 H 26.014523 V 91.473697 H 19.829591 V 85.288766 H -4.9101338 Z"
             id="path912" />
          <path
             style="color:#000000;-inkscape-font-specification:'Pixel Operator';stroke:none;-inkscape-stroke:none"
             d="m -6.1464844,77.867187 v 1.236329 7.421875 H 18.591797 v 3.710937 h -6.183594 v 6.185547 H 6.2226562 v 6.185545 H 0.03710937 v 6.1836 H -6.1464844 v 1.23828 13.60547 H 27.251953 v -8.65821 H 2.5117188 v -3.71093 h 6.1855468 v -6.18555 h 6.1835934 v -6.183596 h 6.185547 v -6.185547 h 6.185547 v -14.84375 z m 2.4726563,2.472657 H 24.777344 v 9.896484 H 21.066406 V 84.052734 H -3.6738281 Z M 14.880859,92.710937 h 3.710938 v 3.710938 h -3.710938 z m -6.1835934,6.185547 h 3.7109374 v 3.710936 H 8.6972656 Z m -6.1855468,6.183596 h 3.7109374 v 3.71094 H 2.5117188 Z m -6.1855469,6.18555 h 3.71093747 v 6.18554 H 24.777344 v 3.71094 H -3.6738281 Z"
             id="path914" />
        </g>
        <g
           id="path901">
          <path
             style="color:#000000;-inkscape-font-specification:'Pixel Operator';stroke:none;-inkscape-stroke:none"
             d="m 63.123922,79.103835 h 6.184931 V 116.21342 H 63.123922 Z M 44.569128,116.21342 h 18.554794 v 6.18493 H 44.569128 Z M 38.384197,79.103835 h 6.184931 v 37.109585 h -6.184931 z"
             id="path918" />
          <path
             style="color:#000000;-inkscape-font-specification:'Pixel Operator';stroke:none;-inkscape-stroke:none"
             d="m 37.146484,77.867187 v 1.236329 38.347654 h 6.185547 v 6.1836 h 21.029297 v -6.1836 h 6.183594 V 77.867187 h -8.658203 v 1.236329 35.873044 H 45.806641 V 77.867187 Z m 2.47461,2.472657 h 3.710937 v 34.636716 h -3.710937 z m 24.740234,0 h 3.710938 V 114.97656 H 64.361328 Z M 45.806641,117.45117 h 16.080078 v 3.71094 H 45.806641 Z"
             id="path920" />
        </g>
        <g
           id="path903">
          <path
             style="color:#000000;-inkscape-font-specification:'Pixel Operator';stroke:none;-inkscape-stroke:none"
             d="m 81.678527,122.39835 h 6.184932 v 6.18493 h -6.184932 z m 6.184932,6.18493 h 18.554791 v 6.18494 H 87.863459 Z M 106.41825,79.103835 h 6.18493 v 49.479445 h -6.18493 V 116.21342 H 87.863459 v -6.18493 h 18.554791 z m -24.739723,0 h 6.184932 v 30.924655 h -6.184932 z"
             id="path924" />
          <path
             style="color:#000000;-inkscape-font-specification:'Pixel Operator';stroke:none;-inkscape-stroke:none"
             d="m 80.441406,77.867187 v 1.236329 32.162114 h 6.185547 v 6.18554 h 18.554687 v 9.89453 H 89.099609 v -6.18359 h -8.658203 v 1.23633 7.42187 h 6.185547 v 6.18555 H 107.6543 v -6.18555 h 6.18554 V 77.867187 h -8.6582 v 1.236329 29.687504 H 89.099609 V 77.867187 Z m 2.47461,2.472657 h 3.710937 v 28.451176 h -3.710937 z m 24.738284,0 h 3.71093 V 127.3457 H 107.6543 V 114.97656 H 89.099609 v -3.71093 H 107.6543 Z M 82.916016,123.63477 h 3.710937 v 3.71093 h -3.710937 z m 6.183593,6.18554 h 16.082031 v 3.71094 H 89.099609 Z"
             id="path926" />
        </g>
        <g
           id="path905">
          <path
             style="color:#000000;-inkscape-font-specification:'Pixel Operator';stroke:none;-inkscape-stroke:none"
             d="m 149.71259,79.103835 h 6.18493 v 37.109585 h -6.18493 z m -18.5548,37.109585 h 18.5548 v 6.18493 h -18.5548 z m -6.18493,-37.109585 h 6.18493 v 37.109585 h -6.18493 z"
             id="path930" />
          <path
             style="color:#000000;-inkscape-font-specification:'Pixel Operator';stroke:none;-inkscape-stroke:none"
             d="m 123.73633,77.867187 v 1.236329 38.347654 h 6.18359 v 6.1836 h 21.0293 v -6.1836 h 6.18555 V 77.867187 h -8.65821 v 1.236329 35.873044 H 132.39453 V 77.867187 Z m 2.47265,2.472657 h 3.71094 v 34.636716 h -3.71094 z m 24.74024,0 h 3.71094 v 34.636716 h -3.71094 z m -18.55469,37.111326 h 16.08203 v 3.71094 h -16.08203 z"
             id="path932" />
        </g>
        <g
           id="path907">
          <path
             style="color:#000000;-inkscape-font-specification:'Pixel Operator';stroke:none;-inkscape-stroke:none"
             d="m 168.26719,110.02849 h 6.18493 v 12.36986 h -6.18493 z m 6.18493,-6.18493 h 6.18493 v 6.18493 h -6.18493 z m 6.18493,-6.184932 h 6.18493 v 6.184932 h -6.18493 z m 6.18493,-6.184931 h 6.18493 v 6.184931 h -6.18493 z m 6.18493,-12.369862 h 6.18493 v 12.369862 h -6.18493 z m 0,30.924655 h 6.18493 v 12.36986 h -6.18493 z m -6.18493,-6.18493 h 6.18493 v 6.18493 h -6.18493 z M 174.45212,91.473697 h 6.18493 v 6.184931 h -6.18493 z m -6.18493,-12.369862 h 6.18493 v 12.369862 h -6.18493 z"
             id="path936" />
          <path
             style="color:#000000;-inkscape-font-specification:'Pixel Operator';stroke:none;-inkscape-stroke:none"
             d="m 167.0293,77.867187 v 1.236329 13.607421 h 6.18554 v 6.185547 h 6.18555 v 3.710936 h -6.18555 v 1.23633 4.94727 h -6.18554 v 1.23828 13.60547 h 8.66015 v -12.36914 h 6.18555 v -6.18555 h 3.71094 v 6.18555 h 6.18359 v 12.36914 h 8.66016 v -14.84375 h -6.18555 v -6.1836 h -6.18555 v -3.710936 h 6.18555 v -6.185547 h 6.18555 v -14.84375 h -8.66016 v 1.236329 11.132812 h -6.18359 v 1.238281 4.947266 H 181.875 v -6.185547 h -6.18555 V 77.867187 Z m 2.47461,2.472657 h 3.71093 v 9.896484 h -3.71093 z m 24.74023,0 h 3.71094 v 9.896484 h -3.71094 z m -18.55469,12.371093 h 3.71094 v 3.710938 h -3.71094 z m 12.36914,0 h 3.71094 v 3.710938 h -3.71094 z m -6.18359,6.185547 h 3.71094 v 3.710936 H 181.875 Z m -6.18555,6.183596 h 3.71094 v 3.71094 h -3.71094 z m 12.36914,0 h 3.71094 v 3.71094 h -3.71094 z m -18.55468,6.18555 h 3.71093 v 9.89648 h -3.71093 z m 24.74023,0 h 3.71094 v 9.89648 h -3.71094 z"
             id="path938" />
        </g>
      </g>
    </g>
  </g>
</svg>
